<svg width="295" height="348" viewBox="0 0 295 348" fill="none" xmlns="http://www.w3.org/2000/svg">
<path d="M54.8865 250.217L139.356 250.217L60.4074 334.153L54.8865 250.217Z" fill="#2EC5B6"/>
<rect width="295" height="257" rx="47" fill="#2EC5B6"/>
<rect x="63" y="46" width="168.15" height="166" rx="27" fill="#FFFFF8"/>
<path d="M197.728 134.302C200.657 131.373 200.656 126.624 197.726 123.695L149.988 75.9746C147.058 73.0462 142.309 73.0471 139.381 75.9766C136.453 78.9061 136.454 83.6548 139.383 86.5832L181.817 129.002L139.399 171.436C136.471 174.366 136.471 179.114 139.401 182.043C142.33 184.971 147.079 184.97 150.007 182.041L197.728 134.302ZM63.0014 136.524L192.425 136.5L192.423 121.5L62.9986 121.524L63.0014 136.524Z" fill="#2EC5B6"/>
</svg>
