<svg width="2589" height="1381" viewBox="0 0 2589 1381" fill="none" xmlns="http://www.w3.org/2000/svg">
<path d="M125.684 1378.25H2515.08C2536.12 1063.57 2672.18 578.409 2382.67 341.311C2021.11 -66.268 1297.79 385.199 893.818 483.515C623.372 459.616 252.595 376.158 80.855 658.022C-86.374 872.591 44.913 1157.72 125.684 1378.25Z" fill="#DCECFD"/>
<path d="M616.256 1121.68C608.94 1113.3 601.438 1104.65 593.803 1095.78C594.059 1095.87 594.296 1095.99 594.554 1096.08C594.554 1096.08 642.603 998.443 604.914 862.369C604.914 862.369 543.627 989.703 561.685 1057.98C544.465 1037.46 526.928 1016.13 509.577 994.421C516.59 980.195 543.916 917.055 525.092 829.952C525.092 829.952 479.184 912.802 485.096 963.36C477.699 953.837 470.384 944.282 463.189 934.731C463.228 934.621 463.277 934.519 463.315 934.407C458.309 929.129 454.322 922.453 449.77 916.726C450.638 917.01 451.528 917.27 452.456 917.484C452.456 917.484 473.151 859.052 442.786 784.57C442.786 784.57 421.159 847.363 428.244 886.929C416.936 870.934 406.175 855.124 396.161 839.668C401.909 830.273 418.633 798.432 414.027 752.207C414.027 752.207 385.318 792.468 383.952 820.397C352.419 780.677 379.484 760.279 308.76 687.171C308.76 687.171 319.733 794.019 362.19 793.53C367.009 802.076 372.159 810.807 377.602 819.692C364.958 808.769 342.225 793.481 308.76 786.971C308.76 786.971 359.05 851.782 386.405 834.381C393.917 845.352 401.081 856.444 408.832 867.814C400.205 863.176 359.099 843.465 300.961 854.162C300.961 854.162 390.821 907.638 410.091 869.66C424.024 890.037 438.909 910.753 453.892 930.734C434.878 924.247 388.662 912.942 330.134 929.739C330.134 929.739 436.905 979.913 460.761 939.884C469.533 951.501 478.48 963.119 487.526 974.673C490.423 983.484 495.644 990.676 503.907 995.397C510.932 1004.2 517.988 1012.95 525.046 1021.61C501.332 1010.38 437.382 986.235 351.049 1001.95C351.049 1001.95 497.371 1089.41 532.815 1031.1C555.83 1059.1 577.913 1086.32 601.88 1112.84C570.809 1097.71 479.777 1061.56 355.753 1084.14C355.753 1084.14 563.095 1208.08 611.19 1123.54C709.011 1235.71 800.563 1329.15 800.615 1329.13L804.213 1325.59C803.334 1324.7 715.509 1235.28 616.256 1121.68Z" fill="white"/>
<path d="M557.498 1236.17C548.878 1232.55 540.016 1228.79 530.971 1224.91C531.199 1224.89 531.42 1224.89 531.65 1224.86C531.65 1224.86 531.86 1133.37 453.115 1044.52C453.115 1044.52 453.881 1163.34 492.748 1208.23C472.16 1199.1 451.033 1189.47 429.908 1179.48C429.948 1166.15 427.255 1108.36 380.852 1049.54C380.852 1049.54 376.795 1129.07 399.941 1165.07C390.835 1160.61 381.78 1156.1 372.817 1151.54C372.806 1151.45 372.805 1151.35 372.793 1151.25C367.062 1149.12 361.584 1145.55 356.03 1142.91C356.791 1142.8 357.558 1142.67 358.338 1142.48C358.338 1142.48 352.377 1090.71 301.921 1045.68C301.921 1045.68 308.79 1101.09 328.762 1128.36C314.311 1120.46 300.342 1112.49 287.068 1104.52C287.938 1095.3 288.803 1065.07 268.243 1031.86C268.243 1031.86 261.438 1072.88 270.726 1094.48C232.234 1076.13 245.137 1050.72 164.71 1021.64C164.71 1021.64 212.479 1098.28 244.363 1082.23C251.161 1086.9 258.276 1091.59 265.67 1096.29C252.084 1092.71 229.266 1089.57 201.587 1097.02C201.587 1097.02 263.517 1127.38 277.746 1104.13C287.473 1109.64 296.982 1115.37 307.038 1121.09C298.809 1120.78 260.48 1121.08 220.525 1150.64C220.525 1150.64 308.15 1157.83 308.671 1122.02C326.723 1132.26 345.62 1142.41 364.318 1151.96C347.561 1154.09 308.48 1162.63 270.483 1196.94C270.483 1196.94 369.66 1195.38 372.886 1156.34C383.804 1161.87 394.853 1167.33 405.955 1172.72C411.399 1178.3 417.999 1181.81 425.984 1182.32C434.543 1186.37 443.105 1190.37 451.634 1194.3C429.575 1194.58 372.357 1199.98 312.961 1243.75C312.961 1243.75 455.786 1255.73 461.01 1198.6C488.737 1211.24 515.475 1223.64 543.375 1234.82C514.319 1234.87 432.21 1241.21 346.883 1304.08C346.883 1304.08 549.275 1321.08 554.36 1239.46C669.686 1288.03 773.355 1324.76 773.389 1324.73L774.799 1320.73C773.807 1320.38 674.436 1285.3 557.498 1236.17Z" fill="white"/>
<path d="M775.74 1012.34C775.74 1012.34 754.42 876.662 505.968 767.034C505.968 767.034 544.885 984.853 630.434 1152.74C570.954 1103.53 493.735 1053.94 395.982 1016.22C395.982 1016.22 444.264 1147.17 512.956 1257.49C473.19 1248.1 426.543 1239.91 371.84 1233.79C371.84 1233.79 435.396 1340.86 526.194 1378.24H613.154C656.254 1378.19 762.29 1378.29 804.212 1378.24L775.74 1012.34Z" fill="#324D90"/>
<mask id="mask0_2046_15" style="mask-type:luminance" maskUnits="userSpaceOnUse" x="371" y="767" width="434" height="612">
<path d="M775.74 1012.34C775.74 1012.34 754.42 876.662 505.968 767.034C505.968 767.034 544.885 984.853 630.434 1152.74C570.954 1103.53 493.735 1053.94 395.982 1016.22C395.982 1016.22 444.264 1147.17 512.956 1257.49C473.19 1248.1 426.543 1239.91 371.84 1233.79C371.84 1233.79 435.396 1340.86 526.194 1378.24H613.154C656.254 1378.19 762.29 1378.29 804.212 1378.24L775.74 1012.34Z" fill="white"/>
</mask>
<g mask="url(#mask0_2046_15)">
<path d="M512.955 1257.49C512.955 1257.49 684.379 1296.06 768.34 1357.33C768.34 1357.33 606.195 1214.74 479.634 1199.8L514.55 1263.34" fill="#152E60"/>
</g>
<mask id="mask1_2046_15" style="mask-type:luminance" maskUnits="userSpaceOnUse" x="371" y="767" width="434" height="612">
<path d="M775.74 1012.34C775.74 1012.34 754.42 876.662 505.968 767.034C505.968 767.034 544.885 984.853 630.434 1152.74C570.954 1103.53 493.735 1053.94 395.982 1016.22C395.982 1016.22 444.264 1147.17 512.956 1257.49C473.19 1248.1 426.543 1239.91 371.84 1233.79C371.84 1233.79 435.396 1340.86 526.194 1378.24H613.154C656.254 1378.19 762.29 1378.29 804.212 1378.24L775.74 1012.34Z" fill="white"/>
</mask>
<g mask="url(#mask1_2046_15)">
<path d="M630.434 1152.74C630.434 1152.74 730.218 1250.17 796.086 1352.1C796.086 1352.1 688.165 1138.7 591.427 1065.66C591.427 1065.66 618.797 1131.1 630.434 1152.74Z" fill="#152E60"/>
</g>
<mask id="mask2_2046_15" style="mask-type:luminance" maskUnits="userSpaceOnUse" x="371" y="767" width="434" height="612">
<path d="M775.74 1012.34C775.74 1012.34 754.42 876.662 505.968 767.034C505.968 767.034 544.885 984.853 630.434 1152.74C570.954 1103.53 493.735 1053.94 395.982 1016.22C395.982 1016.22 444.264 1147.17 512.956 1257.49C473.19 1248.1 426.543 1239.91 371.84 1233.79C371.84 1233.79 435.396 1340.86 526.194 1378.24H613.154C656.254 1378.19 762.29 1378.29 804.212 1378.24L775.74 1012.34Z" fill="white"/>
</mask>
<g mask="url(#mask2_2046_15)">
<path d="M846.151 1371.57C801.105 1181.2 508.333 771.571 505.381 767.456L506.554 766.613C509.508 770.731 802.445 1180.6 847.557 1371.24L846.151 1371.57Z" fill="#152E60"/>
</g>
<mask id="mask3_2046_15" style="mask-type:luminance" maskUnits="userSpaceOnUse" x="371" y="767" width="434" height="612">
<path d="M775.74 1012.34C775.74 1012.34 754.42 876.662 505.968 767.034C505.968 767.034 544.885 984.853 630.434 1152.74C570.954 1103.53 493.735 1053.94 395.982 1016.22C395.982 1016.22 444.264 1147.17 512.956 1257.49C473.19 1248.1 426.543 1239.91 371.84 1233.79C371.84 1233.79 435.396 1340.86 526.194 1378.24H613.154C656.254 1378.19 762.29 1378.29 804.212 1378.24L775.74 1012.34Z" fill="white"/>
</mask>
<g mask="url(#mask3_2046_15)">
<path d="M782.628 1393.18C709.451 1286.81 465.794 1071.4 395.529 1016.78L396.436 1015.66C467.589 1071.1 709.753 1285.08 783.788 1392.32L782.628 1393.18Z" fill="#152E60"/>
</g>
<mask id="mask4_2046_15" style="mask-type:luminance" maskUnits="userSpaceOnUse" x="371" y="767" width="434" height="612">
<path d="M775.74 1012.34C775.74 1012.34 754.42 876.662 505.968 767.034C505.968 767.034 544.885 984.853 630.434 1152.74C570.954 1103.53 493.735 1053.94 395.982 1016.22C395.982 1016.22 444.264 1147.17 512.956 1257.49C473.19 1248.1 426.543 1239.91 371.84 1233.79C371.84 1233.79 435.396 1340.86 526.194 1378.24H613.154C656.254 1378.19 762.29 1378.29 804.212 1378.24L775.74 1012.34Z" fill="white"/>
</mask>
<g mask="url(#mask4_2046_15)">
<path d="M769.522 1404.06C645.61 1336.83 374.312 1235.48 371.585 1234.46L372.091 1233.11C374.816 1234.13 646.209 1335.51 770.212 1402.79L769.522 1404.06Z" fill="#152E60"/>
</g>
<path d="M1988.72 1172.74C1996.04 1164.36 2003.54 1155.72 2011.18 1146.84C2010.92 1146.94 2010.68 1147.05 2010.42 1147.14C2010.42 1147.14 1962.38 1049.5 2000.06 913.43C2000.06 913.43 2061.35 1040.76 2043.29 1109.04C2060.51 1088.52 2078.05 1067.19 2095.4 1045.48C2088.39 1031.26 2061.06 968.116 2079.89 881.013C2079.89 881.013 2125.79 963.863 2119.88 1014.42C2127.28 1004.9 2134.59 995.343 2141.79 985.792C2141.75 985.681 2141.7 985.58 2141.66 985.468C2146.67 980.19 2150.66 973.514 2155.21 967.787C2154.34 968.071 2153.45 968.331 2152.52 968.545C2152.52 968.545 2131.83 910.113 2162.19 835.631C2162.19 835.631 2183.82 898.424 2176.73 937.99C2188.04 921.995 2198.8 906.185 2208.82 890.729C2203.07 881.334 2186.35 849.493 2190.95 803.268C2190.95 803.268 2219.66 843.529 2221.03 871.458C2252.56 831.738 2225.49 811.34 2296.22 738.233C2296.22 738.233 2285.25 845.081 2242.79 844.592C2237.97 853.138 2232.82 861.869 2227.38 870.754C2240.02 859.831 2262.75 844.543 2296.22 838.033C2296.22 838.033 2245.93 902.844 2218.57 885.443C2211.06 896.414 2203.9 907.506 2196.15 918.876C2204.77 914.238 2245.88 894.527 2304.02 905.224C2304.02 905.224 2214.16 958.7 2194.89 920.722C2180.95 941.099 2166.07 961.815 2151.09 981.796C2170.1 975.309 2216.31 964.004 2274.84 980.801C2274.84 980.801 2168.07 1030.97 2144.22 990.946C2135.45 1002.56 2126.5 1014.18 2117.45 1025.73C2114.56 1034.55 2109.33 1041.74 2101.07 1046.46C2094.05 1055.26 2086.99 1064.01 2079.93 1072.67C2103.65 1061.44 2167.6 1037.3 2253.93 1053.01C2253.93 1053.01 2107.61 1140.47 2072.16 1082.16C2049.15 1110.16 2027.07 1137.38 2003.1 1163.91C2034.17 1148.78 2125.2 1112.63 2249.23 1135.2C2249.23 1135.2 2041.88 1259.15 1993.79 1174.61C1895.97 1286.77 1804.42 1380.21 1804.36 1380.19L1800.77 1376.66C1801.65 1375.77 1889.47 1286.35 1988.72 1172.74Z" fill="white"/>
<path d="M2047.48 1287.24C2056.1 1283.62 2064.96 1279.85 2074.01 1275.97C2073.78 1275.95 2073.56 1275.95 2073.33 1275.92C2073.33 1275.92 2073.12 1184.43 2151.87 1095.59C2151.87 1095.59 2151.1 1214.4 2112.23 1259.29C2132.82 1250.16 2153.95 1240.53 2175.07 1230.55C2175.03 1217.21 2177.73 1159.43 2224.13 1100.6C2224.13 1100.6 2228.19 1180.13 2205.04 1216.13C2214.14 1211.67 2223.2 1207.16 2232.16 1202.61C2232.17 1202.51 2232.18 1202.41 2232.19 1202.32C2237.92 1200.18 2243.4 1196.61 2248.95 1193.97C2248.19 1193.86 2247.42 1193.73 2246.64 1193.55C2246.64 1193.55 2252.6 1141.77 2303.06 1096.74C2303.06 1096.74 2296.19 1152.15 2276.22 1179.42C2290.67 1171.52 2304.64 1163.55 2317.91 1155.58C2317.04 1146.36 2316.18 1116.13 2336.74 1082.93C2336.74 1082.93 2343.54 1123.94 2334.25 1145.54C2372.75 1127.19 2359.84 1101.79 2440.27 1072.71C2440.27 1072.71 2392.5 1149.35 2360.62 1133.29C2353.82 1137.96 2346.7 1142.65 2339.31 1147.35C2352.89 1143.77 2375.71 1140.63 2403.39 1148.08C2403.39 1148.08 2341.46 1178.44 2327.23 1155.19C2317.51 1160.7 2308 1166.43 2297.94 1172.16C2306.17 1171.84 2344.5 1172.14 2384.46 1201.7C2384.46 1201.7 2296.83 1208.89 2296.31 1173.08C2278.26 1183.32 2259.36 1193.47 2240.66 1203.02C2257.42 1205.15 2296.5 1213.69 2334.5 1248C2334.5 1248 2235.32 1246.44 2232.09 1207.4C2221.18 1212.93 2210.13 1218.4 2199.03 1223.78C2193.58 1229.36 2186.98 1232.87 2179 1233.38C2170.44 1237.43 2161.88 1241.43 2153.35 1245.36C2175.41 1245.64 2232.62 1251.04 2292.02 1294.81C2292.02 1294.81 2149.2 1306.8 2143.97 1249.66C2116.24 1262.3 2089.51 1274.7 2061.61 1285.88C2090.66 1285.93 2172.77 1292.27 2258.1 1355.14C2258.1 1355.14 2055.71 1372.14 2050.62 1290.52C1935.29 1339.09 1831.63 1375.82 1831.59 1375.79L1830.18 1371.79C1831.17 1371.44 1930.54 1336.36 2047.48 1287.24Z" fill="white"/>
<path d="M1906.14 1012.34C1906.14 1012.34 1927.46 876.662 2175.92 767.034C2175.92 767.034 2137 984.853 2051.45 1152.74C2110.93 1103.53 2188.15 1053.94 2285.9 1016.22C2285.9 1016.22 2237.62 1147.17 2168.93 1257.49C2208.69 1248.1 2255.34 1239.91 2310.04 1233.79C2310.04 1233.79 2246.49 1340.86 2155.69 1378.24H2068.73C2025.63 1378.19 1919.59 1378.29 1877.67 1378.24L1906.14 1012.34Z" fill="#324D90"/>
<mask id="mask5_2046_15" style="mask-type:luminance" maskUnits="userSpaceOnUse" x="1877" y="767" width="434" height="612">
<path d="M1906.14 1012.34C1906.14 1012.34 1927.46 876.662 2175.92 767.034C2175.92 767.034 2137 984.853 2051.45 1152.74C2110.93 1103.53 2188.15 1053.94 2285.9 1016.22C2285.9 1016.22 2237.62 1147.17 2168.93 1257.49C2208.69 1248.1 2255.34 1239.91 2310.04 1233.79C2310.04 1233.79 2246.49 1340.86 2155.69 1378.24H2068.73C2025.63 1378.19 1919.59 1378.29 1877.67 1378.24L1906.14 1012.34Z" fill="white"/>
</mask>
<g mask="url(#mask5_2046_15)">
<path d="M2168.93 1257.49C2168.93 1257.49 1997.5 1296.06 1913.54 1357.33C1913.54 1357.33 2075.69 1214.74 2202.25 1199.8L2167.33 1263.34" fill="#152E60"/>
</g>
<mask id="mask6_2046_15" style="mask-type:luminance" maskUnits="userSpaceOnUse" x="1877" y="767" width="434" height="612">
<path d="M1906.14 1012.34C1906.14 1012.34 1927.46 876.662 2175.92 767.034C2175.92 767.034 2137 984.853 2051.45 1152.74C2110.93 1103.53 2188.15 1053.94 2285.9 1016.22C2285.9 1016.22 2237.62 1147.17 2168.93 1257.49C2208.69 1248.1 2255.34 1239.91 2310.04 1233.79C2310.04 1233.79 2246.49 1340.86 2155.69 1378.24H2068.73C2025.63 1378.19 1919.59 1378.29 1877.67 1378.24L1906.14 1012.34Z" fill="white"/>
</mask>
<g mask="url(#mask6_2046_15)">
<path d="M2051.45 1152.74C2051.45 1152.74 1951.66 1250.17 1885.8 1352.1C1885.8 1352.1 1993.72 1138.7 2090.46 1065.66C2090.46 1065.66 2063.09 1131.1 2051.45 1152.74Z" fill="#152E60"/>
</g>
<mask id="mask7_2046_15" style="mask-type:luminance" maskUnits="userSpaceOnUse" x="1877" y="767" width="434" height="612">
<path d="M1906.14 1012.34C1906.14 1012.34 1927.46 876.662 2175.92 767.034C2175.92 767.034 2137 984.853 2051.45 1152.74C2110.93 1103.53 2188.15 1053.94 2285.9 1016.22C2285.9 1016.22 2237.62 1147.17 2168.93 1257.49C2208.69 1248.1 2255.34 1239.91 2310.04 1233.79C2310.04 1233.79 2246.49 1340.86 2155.69 1378.24H2068.73C2025.63 1378.19 1919.59 1378.29 1877.67 1378.24L1906.14 1012.34Z" fill="white"/>
</mask>
<g mask="url(#mask7_2046_15)">
<path d="M1835.73 1371.57C1880.78 1181.2 2173.55 771.571 2176.5 767.456L2175.33 766.613C2172.38 770.731 1879.44 1180.6 1834.33 1371.24L1835.73 1371.57Z" fill="#152E60"/>
</g>
<mask id="mask8_2046_15" style="mask-type:luminance" maskUnits="userSpaceOnUse" x="1877" y="767" width="434" height="612">
<path d="M1906.14 1012.34C1906.14 1012.34 1927.46 876.662 2175.92 767.034C2175.92 767.034 2137 984.853 2051.45 1152.74C2110.93 1103.53 2188.15 1053.94 2285.9 1016.22C2285.9 1016.22 2237.62 1147.17 2168.93 1257.49C2208.69 1248.1 2255.34 1239.91 2310.04 1233.79C2310.04 1233.79 2246.49 1340.86 2155.69 1378.24H2068.73C2025.63 1378.19 1919.59 1378.29 1877.67 1378.24L1906.14 1012.34Z" fill="white"/>
</mask>
<g mask="url(#mask8_2046_15)">
<path d="M1899.25 1393.18C1972.43 1286.81 2216.09 1071.4 2286.35 1016.78L2285.45 1015.66C2214.29 1071.1 1972.13 1285.08 1898.09 1392.32L1899.25 1393.18Z" fill="#152E60"/>
</g>
<mask id="mask9_2046_15" style="mask-type:luminance" maskUnits="userSpaceOnUse" x="1877" y="767" width="434" height="612">
<path d="M1906.14 1012.34C1906.14 1012.34 1927.46 876.662 2175.92 767.034C2175.92 767.034 2137 984.853 2051.45 1152.74C2110.93 1103.53 2188.15 1053.94 2285.9 1016.22C2285.9 1016.22 2237.62 1147.17 2168.93 1257.49C2208.69 1248.1 2255.34 1239.91 2310.04 1233.79C2310.04 1233.79 2246.49 1340.86 2155.69 1378.24H2068.73C2025.63 1378.19 1919.59 1378.29 1877.67 1378.24L1906.14 1012.34Z" fill="white"/>
</mask>
<g mask="url(#mask9_2046_15)">
<path d="M1912.36 1404.06C2036.27 1336.83 2307.57 1235.48 2310.3 1234.46L2309.79 1233.11C2307.07 1234.13 2035.67 1335.51 1911.67 1402.79L1912.36 1404.06Z" fill="#152E60"/>
</g>
<path d="M1885.35 1303.48H804.21C777.155 1303.48 755.222 1281.54 755.222 1254.49V658.014C755.222 630.959 777.155 609.026 804.21 609.026H1885.35C1912.41 609.026 1934.34 630.959 1934.34 658.014V1254.49C1934.34 1281.54 1912.41 1303.48 1885.35 1303.48Z" fill="#BEDBFA"/>
<path d="M1975.8 1378.25H713.761C703.476 1378.25 695.139 1369.91 695.139 1359.62V1322.1C695.139 1311.81 703.477 1303.48 713.761 1303.48H1975.8C2003.16 1303.99 1992.41 1342.79 1994.42 1359.62C1994.42 1369.91 1986.09 1378.25 1975.8 1378.25Z" fill="#BEDBFA"/>
<path d="M1416.15 1329.13H1273.42C1259.25 1329.13 1247.76 1317.65 1247.76 1303.48H1441.8C1441.8 1317.65 1430.32 1329.13 1416.15 1329.13Z" fill="white"/>
<path d="M1893.48 651.248H796.086V1260.3H1893.48V651.248Z" fill="#DCECFD"/>
<mask id="mask10_2046_15" style="mask-type:luminance" maskUnits="userSpaceOnUse" x="796" y="651" width="1098" height="610">
<path d="M1893.48 651.248H796.086V1260.3H1893.48V651.248Z" fill="white"/>
</mask>
<g mask="url(#mask10_2046_15)">
<path d="M1311.76 699.251H874.766V1021.53H1311.76V699.251Z" fill="#BEDBFA"/>
<path d="M1171.5 863.692L1043.51 790.851V936.533L1171.5 863.692Z" fill="#DCECFD"/>
<path d="M1293.16 1068.04H873.238V1097.01H1293.16V1068.04Z" fill="#BEDBFA"/>
<path d="M1293.16 1126.16H873.238V1155.13H1293.16V1126.16Z" fill="#BEDBFA"/>
<path d="M1024.64 1184.28H873.238V1213.25H1024.64V1184.28Z" fill="#BEDBFA"/>
</g>
<mask id="mask11_2046_15" style="mask-type:luminance" maskUnits="userSpaceOnUse" x="796" y="651" width="1098" height="610">
<path d="M1893.48 651.248H796.086V1260.3H1893.48V651.248Z" fill="white"/>
</mask>
<g mask="url(#mask11_2046_15)">
<path d="M1814.72 690.096H1561.13V830.477H1814.72V690.096Z" fill="#BEDBFA"/>
</g>
<mask id="mask12_2046_15" style="mask-type:luminance" maskUnits="userSpaceOnUse" x="796" y="651" width="1098" height="610">
<path d="M1893.48 651.248H796.086V1260.3H1893.48V651.248Z" fill="white"/>
</mask>
<g mask="url(#mask12_2046_15)">
<path d="M1815.92 854.242H1561.13V870.486H1815.92V854.242Z" fill="#BEDBFA"/>
<path d="M1815.92 884.951H1561.13V901.195H1815.92V884.951Z" fill="#BEDBFA"/>
<path d="M1717.06 915.66H1561.13V931.904H1717.06V915.66Z" fill="#BEDBFA"/>
</g>
<mask id="mask13_2046_15" style="mask-type:luminance" maskUnits="userSpaceOnUse" x="796" y="651" width="1098" height="610">
<path d="M1893.48 651.248H796.086V1260.3H1893.48V651.248Z" fill="white"/>
</mask>
<g mask="url(#mask13_2046_15)">
<path d="M1814.72 961.572H1561.13V1101.95H1814.72V961.572Z" fill="#BEDBFA"/>
</g>
<mask id="mask14_2046_15" style="mask-type:luminance" maskUnits="userSpaceOnUse" x="796" y="651" width="1098" height="610">
<path d="M1893.48 651.248H796.086V1260.3H1893.48V651.248Z" fill="white"/>
</mask>
<g mask="url(#mask14_2046_15)">
<path d="M1815.92 1125.72H1561.13V1141.96H1815.92V1125.72Z" fill="#BEDBFA"/>
<path d="M1815.92 1156.43H1561.13V1172.67H1815.92V1156.43Z" fill="#BEDBFA"/>
<path d="M1717.06 1187.14H1561.13V1203.38H1717.06V1187.14Z" fill="#BEDBFA"/>
</g>
<path d="M804.21 1303.48C1154.29 1300.64 1543.4 1300.62 1893.48 1303.48C1543.4 1306.34 1154.29 1306.31 804.21 1303.48Z" fill="#152E60"/>
<path d="M1662.51 515.124L1887.1 507.549L2076.89 638.977C1818.74 627.057 1883.16 654.236 1662.51 515.124Z" fill="#324D90"/>
<path d="M1934.34 698.64C1934.34 698.64 1984.65 596.409 1874.87 552.299L1874.93 552.111C1872.55 551.343 1870.3 550.545 1867.96 549.647L1867.9 549.835C1764.45 518.91 1725.19 607.241 1725.19 607.241C1779.74 617.414 1826.28 634.977 1839.31 641.797C1852.18 648.537 1881.61 659.996 1934.34 698.64Z" fill="#152E60"/>
<path d="M2046.66 629.019L2023.69 757.399L2025.12 757.655L2048.09 629.275L2046.66 629.019Z" fill="#152E60"/>
<path d="M2008.93 804.724C2003.23 778.425 2001.64 744.301 2028.29 728.884C2056.86 757.246 2030.28 783.337 2008.93 804.724Z" fill="#152E60"/>
<path d="M1342.21 596.908H1263.2L1268.75 545.971L1246.54 596.908H1228.66C1233.53 271.024 1450.78 257.04 1450.06 596.908H1432.34L1427.29 538.439L1417.86 596.908H1385.16V542.617L1374.71 596.909L1342.21 596.908Z" fill="#59445A"/>
<path d="M1287.99 451.282C1292.16 477.643 1270.04 481.399 1265.28 455.139C1261.1 428.778 1283.23 425.022 1287.99 451.282Z" fill="#EDA19D"/>
<path d="M1396.46 451.282C1392.28 477.643 1414.4 481.399 1419.17 455.139C1423.34 428.778 1401.22 425.022 1396.46 451.282Z" fill="#EDA19D"/>
<path d="M1375.63 473.487C1358.84 473.487 1325.6 473.487 1308.81 473.487C1316.87 496.498 1299.28 611.746 1299.28 611.746C1320.83 611.746 1363.62 611.746 1385.16 611.746C1385.16 611.746 1367.57 496.498 1375.63 473.487Z" fill="#F4D2C6"/>
<path d="M1406.69 454.535C1405.08 557.712 1279.35 557.699 1277.75 454.532C1266.32 348.919 1414.71 347.885 1406.69 454.535Z" fill="#F4D2C6"/>
<mask id="mask15_2046_15" style="mask-type:luminance" maskUnits="userSpaceOnUse" x="1277" y="374" width="131" height="158">
<path d="M1406.69 454.535C1405.08 557.712 1279.35 557.699 1277.75 454.532C1266.32 348.919 1414.71 347.885 1406.69 454.535Z" fill="white"/>
</mask>
<g mask="url(#mask15_2046_15)">
<path d="M1277.75 436.264C1277.75 436.264 1300.93 432.085 1312.13 421.271L1300.99 438.41C1300.99 438.41 1334.61 429.029 1346.6 400.819C1346.6 400.819 1357.88 420.566 1359.53 444.308C1359.53 444.308 1373.87 436.08 1377.86 416.099C1377.86 416.099 1389.42 435.539 1405.51 434.634L1396.44 390.24L1347.77 367.626L1292.06 390.71L1273.78 423.151L1277.75 436.264Z" fill="#EDA19D"/>
</g>
<path d="M1309.72 522.281C1309.72 522.281 1340 545.631 1374.71 522.281L1376.54 543.183C1376.54 543.183 1339.16 560.65 1307.88 543.398L1309.72 522.281Z" fill="#EDA19D"/>
<path d="M1474.31 645.849C1461.51 576.048 1404.95 560.061 1342.22 564.183V564.146C1341.77 564.164 1340.85 564.163 1340.4 564.146V564.184C1278.67 559.744 1222.19 577.691 1210.12 645.852C1210.12 645.849 1183.98 872.451 1183.98 872.451C1330.03 914.638 1354.92 912.143 1500.45 872.451L1474.31 645.849Z" fill="#4292F3"/>
<path d="M1290.58 565.23C1296.92 607.704 1387.63 607.518 1393.85 565.23C1393.85 565.23 1341.14 561.505 1290.58 565.23Z" fill="#F4D2C6"/>
<path d="M1342.21 597.358L1309.65 629.818C1309.65 629.818 1276.54 609.424 1281.89 566.988L1290.58 565.23L1342.21 597.358Z" fill="white"/>
<path d="M1342.21 597.358L1374.77 629.818C1374.77 629.818 1407.88 609.424 1402.53 566.988L1393.84 565.23L1342.21 597.358Z" fill="white"/>
<path d="M1483.97 875.453H1199.88C1169.63 929.675 1181.3 970.461 1181.3 970.461C1189.74 1043.58 1298.33 1069.21 1342.22 1010.91C1386.12 1069.22 1494.71 1043.56 1503.14 970.461H1503.15C1514.55 925.048 1483.97 875.453 1483.97 875.453Z" fill="#152E60"/>
<path d="M1696.82 861.954H1005.79V890.994H1696.82V861.954Z" fill="#324D90"/>
<path d="M1050.79 890.994H1037.69V1303.23H1050.79V890.994Z" fill="#152E60"/>
<path d="M1664.91 891.42H1651.81V1303.66H1664.91V891.42Z" fill="#152E60"/>
<path d="M1308.8 975.22L1289.7 1269.1L1237.29 1267.9C1243.75 1266.6 1115.91 905.667 1256.53 912.403C1287.7 915.93 1310.29 943.903 1308.8 975.22Z" fill="#F4D2C6"/>
<mask id="mask16_2046_15" style="mask-type:luminance" maskUnits="userSpaceOnUse" x="1190" y="912" width="119" height="358">
<path d="M1308.8 975.22L1289.7 1269.1L1237.29 1267.9C1243.75 1266.6 1115.91 905.667 1256.53 912.403C1287.7 915.93 1310.29 943.903 1308.8 975.22Z" fill="white"/>
</mask>
<g mask="url(#mask16_2046_15)">
<path d="M1184.72 1011.73C1186.34 1009.37 1212.19 938.982 1258.53 944.748C1304.86 950.514 1301.3 1090.57 1301.3 1090.57C1301.3 1090.57 1340.01 966.813 1328.98 940.808C1313.14 876.704 1171.89 873.229 1169.79 945.539C1170.58 978.633 1184.72 1011.73 1184.72 1011.73Z" fill="#EDA19D"/>
</g>
<path d="M1299.51 1210.95H1217.54L1232.95 1269.1H1289.7L1299.51 1210.95Z" fill="#F08F3C"/>
<path d="M1320.95 1303.66C1320.95 1303.66 1317.82 1238.94 1286.01 1240.02C1233.18 1242.92 1215.37 1267.51 1217.54 1302.83L1320.95 1303.66Z" fill="#152E60"/>
<path d="M1360.92 975.22L1380.03 1269.1L1432.44 1267.9C1425.98 1266.6 1553.82 905.667 1413.19 912.403C1382.03 915.93 1359.43 943.903 1360.92 975.22Z" fill="#F4D2C6"/>
<mask id="mask17_2046_15" style="mask-type:luminance" maskUnits="userSpaceOnUse" x="1360" y="912" width="120" height="358">
<path d="M1360.92 975.22L1380.03 1269.1L1432.44 1267.9C1425.98 1266.6 1553.82 905.667 1413.19 912.403C1382.03 915.93 1359.43 943.903 1360.92 975.22Z" fill="white"/>
</mask>
<g mask="url(#mask17_2046_15)">
<path d="M1478.41 940.413C1478.41 940.413 1399.12 944.262 1385.01 967.996C1370.9 991.731 1365.77 1090.57 1365.77 1090.57C1365.77 1090.57 1326.07 976.335 1342.39 943.62C1358.71 910.905 1410.03 892.913 1432.48 899.343C1454.93 905.774 1478.41 940.413 1478.41 940.413Z" fill="#EDA19D"/>
</g>
<path d="M1370.22 1210.95H1452.19L1436.78 1269.1H1380.03L1370.22 1210.95Z" fill="#F08F3C"/>
<path d="M1348.78 1303.66C1348.78 1303.66 1351.91 1238.94 1383.72 1240.02C1436.55 1242.92 1454.36 1267.51 1452.18 1302.83L1348.78 1303.66Z" fill="#152E60"/>
<path d="M1350.47 362.486C1350.47 362.486 1340.58 409.543 1318.35 421.008L1325.82 396.018C1325.82 396.018 1307.3 423.066 1273.78 428.064C1277.14 388.353 1306.53 358.963 1350.47 362.486Z" fill="#59445A"/>
<path d="M1344.31 367.628C1344.31 367.628 1357.88 404.615 1361.61 438.41C1361.61 438.41 1374.91 431.866 1376.54 397.704C1376.54 397.704 1385.16 429.837 1405.51 434.635C1405.51 434.635 1406.85 367.362 1344.31 367.628Z" fill="#59445A"/>
<path d="M1462.23 611.746L1539.56 719.914L1481.73 754.333L1462.23 611.746Z" fill="#4292F3"/>
<path d="M1530.8 725.129C1537.65 741.223 1564.73 777.555 1560.93 796.082C1559.29 813.345 1547.29 827.862 1530.65 832.724L1430.6 861.954L1419.63 819.251L1490.38 785.113L1486.5 751.495L1530.8 725.129Z" fill="#F4D2C6"/>
<mask id="mask18_2046_15" style="mask-type:luminance" maskUnits="userSpaceOnUse" x="1419" y="725" width="143" height="137">
<path d="M1530.8 725.129C1537.65 741.223 1564.73 777.555 1560.93 796.082C1559.29 813.345 1547.29 827.862 1530.65 832.724L1430.6 861.954L1419.63 819.251L1490.38 785.113L1486.5 751.495L1530.8 725.129Z" fill="white"/>
</mask>
<g mask="url(#mask18_2046_15)">
<path d="M1544.9 734.267C1544.9 734.267 1524.06 777.698 1485.23 785.516L1477.67 746.039L1524.96 713.597L1544.9 734.267Z" fill="#EDA19D"/>
</g>
<path d="M1223.39 609.163L1146.06 717.331L1203.89 751.75L1223.39 609.163Z" fill="#4292F3"/>
<path d="M1154.82 722.546C1147.92 738.517 1120.93 775.061 1124.69 793.5C1126.33 810.762 1138.33 825.279 1154.97 830.141L1255.03 859.371L1265.99 816.668L1195.24 782.53L1199.12 748.912L1154.82 722.546Z" fill="#F4D2C6"/>
<mask id="mask19_2046_15" style="mask-type:luminance" maskUnits="userSpaceOnUse" x="1124" y="722" width="142" height="138">
<path d="M1154.82 722.546C1147.92 738.517 1120.93 775.061 1124.69 793.5C1126.33 810.762 1138.33 825.279 1154.97 830.141L1255.03 859.371L1265.99 816.668L1195.24 782.53L1199.12 748.912L1154.82 722.546Z" fill="white"/>
</mask>
<g mask="url(#mask19_2046_15)">
<path d="M1140.72 731.684C1140.72 731.684 1161.56 775.115 1200.39 782.933L1207.95 743.456L1160.66 711.014L1140.72 731.684Z" fill="#EDA19D"/>
</g>
<path d="M1452.6 861.954H1231.98C1225.19 861.954 1219.45 856.923 1218.56 850.19L1199.31 704.839C1198.24 696.725 1204.55 689.52 1212.73 689.52H1471.69C1479.87 689.52 1486.18 696.715 1485.11 704.825L1466.02 850.176C1465.14 856.915 1459.39 861.954 1452.6 861.954Z" fill="white"/>
<path d="M58.1045 1375.79C894.773 1369.99 1751.72 1369.94 2588.39 1375.79C1751.72 1381.64 894.776 1381.59 58.1045 1375.79Z" fill="#152E60"/>
<path d="M1117.08 81.85C1232.06 81.334 1331.45 159.274 1259.36 241.015C1284.8 353.6 1279.66 319.812 1185.51 281.907C960.569 344.495 827.707 102.6 1117.08 81.85Z" fill="#DCECFD"/>
<path d="M1182.15 184.931C1182.24 204.5 1211.99 204.498 1212.08 184.93C1211.99 165.362 1182.24 165.364 1182.15 184.931Z" fill="white"/>
<path d="M1095.02 184.931C1095.11 204.5 1124.86 204.498 1124.95 184.93C1124.86 165.362 1095.1 165.364 1095.02 184.931Z" fill="white"/>
<path d="M1007.89 184.931C1007.97 204.5 1037.73 204.498 1037.81 184.93C1037.72 165.362 1007.97 165.364 1007.89 184.931Z" fill="white"/>
<path d="M2302.21 0L2259.99 139.934C2259.14 142.742 2255.4 143.284 2253.79 140.832L2230.88 105.926L2302.21 0Z" fill="#F08F3C"/>
<path d="M2230.88 105.927L2183.66 98.667L2302.21 0L2230.88 105.927Z" fill="#F9CE68"/>
<path d="M2302.21 0L2260.15 111.307L2316.42 120.096L2302.21 0Z" fill="#F9CE68"/>
<path d="M2252.63 174.373L2250.84 174.024C2251.25 171.929 2251.65 169.84 2252.04 167.759L2253.83 168.094C2253.44 170.18 2253.04 172.272 2252.63 174.373Z" fill="#F08F3C"/>
<path d="M1911.47 487.324L1911.18 485.523C1915.44 484.824 1919.65 483.977 1923.69 483.008L1924.12 484.783C1920.04 485.762 1915.78 486.617 1911.47 487.324ZM1929.47 483.4L1928.99 481.641C1933.19 480.477 1937.27 479.151 1941.11 477.7L1941.75 479.407C1937.87 480.877 1933.74 482.221 1929.47 483.4ZM1946.89 477.331L1946.17 475.656C1950.2 473.916 1954.02 471.991 1957.51 469.934L1958.44 471.507C1954.88 473.602 1950.99 475.561 1946.89 477.331ZM1963.14 468.542L1962.12 467.031C1965.74 464.578 1969.05 461.905 1971.96 459.083L1973.23 460.393C1970.25 463.289 1966.85 466.03 1963.14 468.542ZM2006.08 462.969C2001.62 462.937 1997.28 462.627 1993.17 462.049L1993.43 460.242C1997.45 460.81 2001.71 461.113 2006.1 461.144L2006.08 462.969ZM2011.63 462.874L2011.55 461.051C2015.62 460.883 2019.89 460.495 2024.24 459.897L2024.49 461.704C2020.08 462.311 2015.76 462.703 2011.63 462.874ZM1987.7 461.088C1983.32 460.158 1979.26 458.951 1975.28 457.309L1975.98 455.625C1976.14 455.69 1976.29 455.754 1976.45 455.818L1975.68 455.151C1978.48 451.915 1980.88 448.427 1982.81 444.78L1984.42 445.634C1982.47 449.322 1980.05 452.853 1977.24 456.132C1980.68 457.453 1984.29 458.505 1988.07 459.304L1987.7 461.088ZM2029.95 460.851L2029.64 459.053C2033.68 458.351 2037.88 457.461 2042.13 456.408L2042.56 458.179C2038.28 459.242 2034.03 460.141 2029.95 460.851ZM2047.91 456.778L2047.42 455.019C2051.41 453.913 2055.52 452.649 2059.63 451.26L2060.22 452.988C2056.07 454.389 2051.93 455.664 2047.91 456.778ZM1970.23 454.906C1966.39 452.837 1962.78 450.352 1959.53 447.516L1960.72 446.141C1963.88 448.887 1967.37 451.295 1971.1 453.299L1970.23 454.906ZM2065.42 451.167L2064.8 449.451C2068.81 448.003 2072.8 446.444 2076.69 444.777L2077.41 446.454C2073.49 448.136 2069.47 449.707 2065.42 451.167ZM2082.46 444.213L2081.69 442.556C2085.53 440.788 2089.37 438.874 2093.11 436.865L2093.98 438.472C2090.2 440.499 2086.33 442.431 2082.46 444.213ZM1955.5 443.639C1952.39 440.316 1949.85 436.739 1947.94 433.007L1949.57 432.179C1951.4 435.759 1953.84 439.195 1956.83 442.392L1955.5 443.639ZM1986.78 440.572L1985.08 439.887C1986.65 436.016 1987.81 431.904 1988.31 427.761L1990.12 427.984C1989.6 432.285 1988.4 436.553 1986.78 440.572ZM2098.8 435.797L2097.9 434.213C2101.56 432.124 2105.22 429.882 2108.79 427.552L2109.79 429.079C2106.19 431.43 2102.49 433.69 2098.8 435.797ZM1945.75 427.828C1944.34 423.6 1943.61 419.23 1944.09 414.817L1945.9 415.008C1945.46 419.16 1946.15 423.262 1947.48 427.242L1945.75 427.828ZM2114.35 426.012L2113.32 424.51C2116.78 422.124 2120.24 419.587 2123.61 416.967L2124.73 418.407C2121.33 421.048 2117.84 423.607 2114.35 426.012ZM1988.63 422.392C1988.6 417.985 1987.85 413.872 1986.4 410.165L1988.1 409.502C1989.63 413.416 1990.42 417.749 1990.45 422.379L1988.63 422.392ZM2129.04 414.97L2127.88 413.557C2131.14 410.896 2134.39 408.088 2137.55 405.21L2138.78 406.559C2135.6 409.459 2132.32 412.288 2129.04 414.97ZM1947.05 409.857L1945.32 409.26C1946.79 405.021 1949.36 401.27 1952.77 398.41L1953.94 399.807C1950.79 402.455 1948.4 405.93 1947.05 409.857ZM1984.02 405.418C1981.83 401.918 1978.56 398.723 1975.18 396.998L1976.02 395.38C1979.69 397.253 1983.2 400.671 1985.56 404.443L1984.02 405.418ZM2142.82 402.798L2141.56 401.476C2144.61 398.58 2147.65 395.535 2150.6 392.427L2151.92 393.683C2148.95 396.813 2145.89 399.879 2142.82 402.798ZM1958.36 396.933L1957.55 395.294C1961.68 393.29 1966.2 392.608 1970.61 393.472L1970.26 395.263C1966.24 394.475 1962.13 395.103 1958.36 396.933ZM2155.69 389.638L2154.34 388.409C2157.16 385.313 2159.99 382.064 2162.74 378.752L2164.14 379.917C2161.38 383.251 2158.53 386.521 2155.69 389.638ZM2167.63 375.629L2166.21 374.49C2168.82 371.218 2171.44 367.794 2173.99 364.314L2175.46 365.392C2172.9 368.893 2170.26 372.337 2167.63 375.629ZM2178.69 360.9L2177.2 359.849C2179.61 356.427 2182.02 352.857 2184.37 349.237L2185.9 350.229C2183.54 353.87 2181.11 357.461 2178.69 360.9ZM2188.88 345.569L2187.33 344.6C2189.56 341.042 2191.78 337.347 2193.94 333.621L2195.52 334.533C2193.35 338.279 2191.12 341.992 2188.88 345.569ZM2198.25 329.73L2196.65 328.839C2198.71 325.152 2200.76 321.354 2202.72 317.551L2204.34 318.388C2202.37 322.21 2200.32 326.025 2198.25 329.73ZM2206.85 313.467L2205.21 312.651C2207.1 308.891 2208.97 305.006 2210.77 301.105L2212.43 301.873C2210.61 305.79 2208.73 309.691 2206.85 313.467ZM2214.72 296.853L2213.05 296.107C2214.77 292.274 2216.48 288.318 2218.13 284.347L2219.82 285.047C2218.16 289.034 2216.44 293.006 2214.72 296.853ZM2221.9 279.949L2220.21 279.267C2221.77 275.381 2223.33 271.364 2224.84 267.328L2226.55 267.966C2225.04 272.016 2223.47 276.048 2221.9 279.949ZM2228.44 262.798L2226.73 262.178C2228.16 258.226 2229.57 254.159 2230.93 250.09L2232.66 250.669C2231.3 254.752 2229.88 258.833 2228.44 262.798ZM2234.38 245.448L2232.64 244.887C2233.94 240.88 2235.21 236.77 2236.44 232.673L2238.19 233.195C2236.96 237.305 2235.68 241.428 2234.38 245.448ZM2239.74 227.91L2237.98 227.404C2239.15 223.368 2240.3 219.213 2241.4 215.053L2243.17 215.522C2242.06 219.693 2240.91 223.861 2239.74 227.91ZM2244.56 210.191L2242.79 209.738C2243.83 205.677 2244.86 201.489 2245.84 197.29L2247.61 197.707C2246.63 201.917 2245.6 206.118 2244.56 210.191ZM2248.85 192.339L2247.07 191.938C2247.99 187.84 2248.9 183.623 2249.76 179.407L2251.55 179.772C2250.68 184.001 2249.78 188.229 2248.85 192.339Z" fill="#F08F3C"/>
<path d="M1899.56 488.902L1899.37 487.086C1901.46 486.874 1903.56 486.628 1905.68 486.343L1905.93 488.152C1903.79 488.438 1901.66 488.688 1899.56 488.902Z" fill="#F08F3C"/>
<path d="M923.434 551.01C919.866 759.944 609.081 759.911 605.543 551.003C609.111 342.077 919.896 342.11 923.434 551.01Z" fill="#F9CE68"/>
<mask id="mask20_2046_15" style="mask-type:luminance" maskUnits="userSpaceOnUse" x="605" y="394" width="319" height="314">
<path d="M923.434 551.01C919.866 759.944 609.081 759.911 605.543 551.003C609.111 342.077 919.896 342.11 923.434 551.01Z" fill="white"/>
</mask>
<g mask="url(#mask20_2046_15)">
<path d="M888.409 424.487C973.815 619.856 744.081 775.26 598.242 629.042C598.242 629.042 685.046 746.716 785.015 735.719C884.984 724.722 949.996 673.033 954.395 630.142C958.794 587.252 928.001 444.283 888.409 424.487Z" fill="#F08F3C"/>
</g>
<path d="M805.362 603.685H697.896C687.674 603.685 679.388 595.399 679.388 585.177V522.167C679.388 511.945 687.674 503.659 697.896 503.659H805.363C815.585 503.659 823.871 511.945 823.871 522.167V585.177C823.871 595.398 815.584 603.685 805.362 603.685Z" fill="#324D90"/>
<path d="M830.792 528.322V571.758L870.207 596.376V509.902L830.792 528.322Z" fill="#324D90"/>
<path d="M695.139 438.41C694.267 489.473 618.312 489.465 617.448 438.408C618.32 387.348 694.274 387.356 695.139 438.41Z" fill="#324D90"/>
<path d="M1974.49 281.59C1908.98 414.462 1709.74 320.399 1770.69 185.393C1836.19 52.525 2035.43 146.589 1974.49 281.59Z" fill="#A7C9E8"/>
<path d="M1984.15 261.117C1913.72 403.967 1699.52 302.84 1765.04 157.696C1835.47 14.85 2049.67 115.977 1984.15 261.117Z" fill="#F9CE68"/>
<mask id="mask21_2046_15" style="mask-type:luminance" maskUnits="userSpaceOnUse" x="1752" y="88" width="245" height="243">
<path d="M1984.15 261.117C1913.72 403.967 1699.52 302.84 1765.04 157.696C1835.47 14.85 2049.67 115.977 1984.15 261.117Z" fill="white"/>
</mask>
<g mask="url(#mask21_2046_15)">
<path d="M1840.02 78.62C1845.31 87.456 1853.42 94.981 1857.1 104.477C1850.36 117.099 1835.3 125.818 1831.75 140.282C1831 155.999 1840.54 170.336 1829.82 185.649C1827.54 190.012 1822.95 192.058 1818.57 189.492C1808.62 185.366 1798.68 181.239 1788.73 177.113C1786.49 175.872 1783.8 176.185 1782.27 178.369C1773.11 189.902 1793.21 207.782 1782.36 218.797C1759.3 230.155 1780.55 249.771 1750.72 270.252C1721.39 172.07 1732.18 108.585 1840.02 78.62Z" fill="#F08F3C"/>
</g>
<mask id="mask22_2046_15" style="mask-type:luminance" maskUnits="userSpaceOnUse" x="1752" y="88" width="245" height="243">
<path d="M1984.15 261.117C1913.72 403.967 1699.52 302.84 1765.04 157.696C1835.47 14.85 2049.67 115.977 1984.15 261.117Z" fill="white"/>
</mask>
<g mask="url(#mask22_2046_15)">
<path d="M1959.16 246.982C1948.82 230.507 1924.61 249.706 1917.1 260.712C1914.96 264.427 1911.2 267.487 1907.49 264.259C1900.47 259.725 1893.1 255.711 1885.49 252.261C1877.84 247.339 1869.14 252.923 1868.36 261.771C1867.11 272.221 1874.81 285.026 1866.81 294.026C1891.01 319.565 1915.28 289.682 1915.94 304.651C1916.97 324.756 1931.16 335.84 1948.48 322.895C1958.35 316.323 1978.15 300.351 1979.57 287.429C1980.87 275.638 1965.75 256.059 1959.16 246.982Z" fill="#F08F3C"/>
</g>
<mask id="mask23_2046_15" style="mask-type:luminance" maskUnits="userSpaceOnUse" x="1752" y="88" width="245" height="243">
<path d="M1984.15 261.117C1913.72 403.967 1699.52 302.84 1765.04 157.696C1835.47 14.85 2049.67 115.977 1984.15 261.117Z" fill="white"/>
</mask>
<g mask="url(#mask23_2046_15)">
<path d="M1901.76 134.665C1895.53 135.997 1891.76 142.181 1888.74 147.788C1881.65 162.9 1870.75 177.148 1865.73 192.841C1869.99 201.273 1891.4 202.336 1896.12 194.512C1902.6 183.05 1899.47 170.256 1917.04 174.749C1935.66 177.358 1943.02 160.775 1952.14 148.254C1957.3 141.599 1983.21 129.134 1970.64 120.433C1966.02 118.457 1961.65 113.871 1956.49 114.022C1946.37 119.188 1943.94 147.541 1932.03 149.401C1921.41 150.705 1914.79 131.877 1901.76 134.665Z" fill="#F08F3C"/>
</g>
<path d="M1983.44 282.032L1992.24 291.28L1992.15 291.365L1983.44 282.032Z" fill="#152E60"/>
<path d="M2000.87 300.702L2009.25 310.35L2008.96 310.589L2000.69 300.867L2000.87 300.702Z" fill="#152E60"/>
<path d="M2017.25 320.323C2019.82 323.724 2022.3 327.2 2024.52 330.862L2023.98 331.18C2021.82 327.528 2019.38 324.039 2016.85 320.622L2017.25 320.323Z" fill="#152E60"/>
<path d="M2028.62 342.98C2026.77 347.774 2020.21 345.053 2016.66 344.003L2016.91 343.295C2020.16 344.191 2026.09 346.935 2027.93 342.796L2028.62 342.98Z" fill="#152E60"/>
<path d="M2004.98 338.724L1993.83 332.461L1994.26 331.742L2005.35 338.02L2004.98 338.724Z" fill="#152E60"/>
<path d="M1982.97 325.722L1972.3 318.679L1972.82 317.916L1983.44 324.982L1982.97 325.722Z" fill="#152E60"/>
<path d="M1961.79 311.418L1951.4 303.985L1951.99 303.17L1962.35 310.629L1961.79 311.418Z" fill="#152E60"/>
<path d="M1941.11 296.411L1930.91 288.715L1931.58 287.846L1941.74 295.569L1941.11 296.411Z" fill="#152E60"/>
<path d="M1920.79 280.911L1910.75 273.011L1911.49 272.088L1921.49 280.015L1920.79 280.911Z" fill="#152E60"/>
<path d="M1900.78 265.021L1890.88 256.948L1891.69 255.972L1901.55 264.072L1900.78 265.021Z" fill="#152E60"/>
<path d="M1881.05 248.797L1871.27 240.569L1872.15 239.54L1881.89 247.795L1881.05 248.797Z" fill="#152E60"/>
<path d="M1861.57 232.257L1851.95 223.85L1852.82 222.856L1862.46 231.223L1861.57 232.257Z" fill="#152E60"/>
<path d="M1842.39 215.372L1832.9 206.819L1833.73 205.901L1843.24 214.416L1842.39 215.372Z" fill="#152E60"/>
<path d="M1823.47 198.19L1814.12 189.481L1814.91 188.641L1824.28 197.311L1823.47 198.19Z" fill="#152E60"/>
<path d="M1804.85 180.688L1795.66 171.804L1796.4 171.041L1805.61 179.886L1804.85 180.688Z" fill="#152E60"/>
<path d="M1786.57 162.822L1777.58 153.733L1778.28 153.048L1787.29 162.098L1786.57 162.822Z" fill="#152E60"/>
<path d="M1768.73 144.519L1760.03 135.156L1760.69 134.553L1769.41 143.874L1768.73 144.519Z" fill="#152E60"/>
<path d="M1751.53 125.607L1743.31 115.807L1743.94 115.3L1752.17 125.049L1751.53 125.607Z" fill="#152E60"/>
<path d="M1735.55 105.633C1733.09 102.147 1730.72 98.579 1728.79 94.737L1729.44 94.417C1731.34 98.19 1733.71 101.732 1736.17 105.19L1735.55 105.633Z" fill="#152E60"/>
<path d="M1730.08 83.638C1734.43 83.349 1738.56 85.234 1742.49 86.839L1742.28 87.324C1738.44 85.8 1734.37 83.983 1730.16 84.286L1730.08 83.638Z" fill="#152E60"/>
<path d="M1753.9 92.6119L1764.9 99.1239L1764.75 99.3609L1753.71 92.9649L1753.9 92.6119Z" fill="#152E60"/>
<path d="M1775.63 106.04L1786.19 113.225L1786.18 113.248L1775.55 106.168L1775.63 106.04Z" fill="#152E60"/>
<path d="M1998.82 187.472L2011.59 187.761L2011.59 187.884L1998.82 187.472Z" fill="#152E60"/>
<path d="M2024.36 188.294L2037.11 189.152L2037.07 189.52L2024.34 188.54L2024.36 188.294Z" fill="#152E60"/>
<path d="M2049.82 190.485C2054.05 191.043 2058.26 191.711 2062.43 192.665L2062.29 193.265C2058.16 192.277 2053.96 191.571 2049.75 190.973L2049.82 190.485Z" fill="#152E60"/>
<path d="M2074.31 197.545C2078.42 201.598 2072.01 205.61 2068.64 207.241L2068.3 206.573C2071.19 205.058 2077.43 201.751 2073.81 198.051L2074.31 197.545Z" fill="#152E60"/>
<path d="M2056.72 211.948L2044.42 215.48L2044.21 214.672L2056.47 211.194L2056.72 211.948Z" fill="#152E60"/>
<path d="M2031.98 218.441L2019.47 221.033L2019.29 220.131L2031.8 217.584L2031.98 218.441Z" fill="#152E60"/>
<path d="M2006.9 223.357L1994.3 225.47L1994.14 224.478L2006.74 222.41L2006.9 223.357Z" fill="#152E60"/>
<path d="M1981.68 227.405L1969.02 229.189L1968.88 228.109L1981.52 226.37L1981.68 227.405Z" fill="#152E60"/>
<path d="M1956.35 230.837L1943.67 232.362L1943.54 231.195L1956.22 229.714L1956.35 230.837Z" fill="#152E60"/>
<path d="M1930.97 233.773L1918.26 235.076L1918.14 233.823L1930.84 232.563L1930.97 233.773Z" fill="#152E60"/>
<path d="M1905.55 236.277L1892.82 237.38L1892.71 236.041L1905.43 234.981L1905.55 236.277Z" fill="#152E60"/>
<path d="M1880.08 238.381L1867.33 239.25L1867.25 237.922L1879.98 237.01L1880.08 238.381Z" fill="#152E60"/>
<path d="M1854.58 240.024L1841.82 240.7L1841.76 239.455L1854.5 238.738L1854.58 240.024Z" fill="#152E60"/>
<path d="M1829.06 241.273L1816.29 241.739L1816.25 240.579L1829 240.071L1829.06 241.273Z" fill="#152E60"/>
<path d="M1803.51 242.091L1790.73 242.319L1790.72 241.244L1803.48 240.973L1803.51 242.091Z" fill="#152E60"/>
<path d="M1777.95 242.413L1765.17 242.355L1765.18 241.365L1777.95 241.38L1777.95 242.413Z" fill="#152E60"/>
<path d="M1752.4 242.121L1739.62 241.676L1739.66 240.773L1752.42 241.174L1752.4 242.121Z" fill="#152E60"/>
<path d="M1726.86 240.966L1714.12 239.894L1714.2 239.079L1726.92 240.106L1726.86 240.966Z" fill="#152E60"/>
<path d="M1701.42 238.265C1697.21 237.579 1693.01 236.772 1688.9 235.531L1689.11 234.829C1693.17 236.04 1697.35 236.83 1701.55 237.498L1701.42 238.265Z" fill="#152E60"/>
<path d="M1679.97 227.564C1682.1 223.655 1686.7 222.096 1690.51 220.33L1690.72 220.855C1687.1 222.576 1682.63 224.149 1680.61 227.824L1679.97 227.564Z" fill="#152E60"/>
<path d="M1702.62 216.213L1714.98 212.982L1715.06 213.293L1702.74 216.639L1702.62 216.213Z" fill="#152E60"/>
<path d="M1727.46 210.238L1740 207.823L1740.02 207.894L1727.5 210.43L1727.46 210.238Z" fill="#152E60"/>
</svg>
