<svg width="816" height="484" viewBox="0 0 816 484" fill="none" xmlns="http://www.w3.org/2000/svg">
<rect width="816" height="311" rx="88" fill="#2EC5B6"/>
<path d="M159.5 311L312.5 311L169.5 460.5L159.5 311Z" fill="#2EC5B6"/>
<rect x="82" y="73" width="165" height="166" rx="27" fill="#FFFFF8"/>
<path d="M214.304 161.302C217.232 158.373 217.231 153.624 214.302 150.696L166.563 102.975C163.634 100.047 158.885 100.048 155.956 102.977C153.028 105.907 153.029 110.655 155.958 113.584L198.393 156.002L155.974 198.436C153.046 201.366 153.047 206.115 155.976 209.043C158.906 211.971 163.655 211.971 166.583 209.041L214.304 161.302ZM82.0014 163.524L209.001 163.5L208.998 148.5L81.9986 148.524L82.0014 163.524Z" fill="#2EC5B6"/>
<path d="M272.5 149V79.1818H302.773C308.091 79.1818 312.557 79.8977 316.17 81.3295C319.807 82.7614 322.545 84.7841 324.386 87.3977C326.25 90.0114 327.182 93.0909 327.182 96.6364C327.182 99.2045 326.614 101.545 325.477 103.659C324.364 105.773 322.795 107.545 320.773 108.977C318.75 110.386 316.386 111.364 313.682 111.909V112.591C316.682 112.705 319.409 113.466 321.864 114.875C324.318 116.261 326.273 118.182 327.727 120.636C329.182 123.068 329.909 125.932 329.909 129.227C329.909 133.045 328.909 136.443 326.909 139.42C324.932 142.398 322.114 144.739 318.455 146.443C314.795 148.148 310.432 149 305.364 149H272.5ZM291.455 133.864H300.318C303.5 133.864 305.886 133.273 307.477 132.091C309.068 130.886 309.864 129.114 309.864 126.773C309.864 125.136 309.489 123.75 308.739 122.614C307.989 121.477 306.92 120.614 305.534 120.023C304.17 119.432 302.523 119.136 300.591 119.136H291.455V133.864ZM291.455 107.409H299.227C300.886 107.409 302.352 107.148 303.625 106.625C304.898 106.102 305.886 105.352 306.591 104.375C307.318 103.375 307.682 102.159 307.682 100.727C307.682 98.5682 306.909 96.9205 305.364 95.7841C303.818 94.625 301.864 94.0455 299.5 94.0455H291.455V107.409ZM336.625 149V79.1818H366.761C371.943 79.1818 376.477 80.125 380.364 82.0114C384.25 83.8977 387.273 86.6136 389.432 90.1591C391.591 93.7045 392.67 97.9545 392.67 102.909C392.67 107.909 391.557 112.125 389.33 115.557C387.125 118.989 384.023 121.58 380.023 123.33C376.045 125.08 371.398 125.955 366.08 125.955H348.08V111.227H362.261C364.489 111.227 366.386 110.955 367.955 110.409C369.545 109.841 370.761 108.943 371.602 107.716C372.466 106.489 372.898 104.886 372.898 102.909C372.898 100.909 372.466 99.2841 371.602 98.0341C370.761 96.7614 369.545 95.8295 367.955 95.2386C366.386 94.625 364.489 94.3182 362.261 94.3182H355.58V149H336.625ZM377.534 116.955L394.989 149H374.398L357.352 116.955H377.534ZM400.75 149V79.1818H451.068V94.4545H419.705V106.455H448.477V121.727H419.705V133.727H450.932V149H400.75ZM478.605 149H458.151L481.196 79.1818H507.105L530.151 149H509.696L494.423 98.4091H493.878L478.605 149ZM474.787 121.455H513.241V135.636H474.787V121.455ZM536.875 149V79.1818H555.83V107.409H556.784L577.784 79.1818H599.875L576.284 110.273L600.42 149H577.784L562.102 122.818L555.83 131V149H536.875ZM270.591 177.455V162.182H331.273V177.455H310.273V232H291.591V177.455H270.591ZM338.406 232V162.182H357.361V189.455H382.452V162.182H401.406V232H382.452V204.727H357.361V232H338.406ZM410.406 232V162.182H440.543C445.724 162.182 450.259 163.125 454.145 165.011C458.031 166.898 461.054 169.614 463.213 173.159C465.372 176.705 466.452 180.955 466.452 185.909C466.452 190.909 465.338 195.125 463.111 198.557C460.906 201.989 457.804 204.58 453.804 206.33C449.827 208.08 445.179 208.955 439.861 208.955H421.861V194.227H436.043C438.27 194.227 440.168 193.955 441.736 193.409C443.327 192.841 444.543 191.943 445.384 190.716C446.247 189.489 446.679 187.886 446.679 185.909C446.679 183.909 446.247 182.284 445.384 181.034C444.543 179.761 443.327 178.83 441.736 178.239C440.168 177.625 438.27 177.318 436.043 177.318H429.361V232H410.406ZM451.315 199.955L468.77 232H448.179L431.134 199.955H451.315ZM542.168 197.091C542.168 204.864 540.656 211.42 537.634 216.761C534.611 222.08 530.531 226.114 525.395 228.864C520.259 231.591 514.531 232.955 508.213 232.955C501.849 232.955 496.099 231.58 490.963 228.83C485.849 226.057 481.781 222.011 478.759 216.693C475.759 211.352 474.259 204.818 474.259 197.091C474.259 189.318 475.759 182.773 478.759 177.455C481.781 172.114 485.849 168.08 490.963 165.352C496.099 162.602 501.849 161.227 508.213 161.227C514.531 161.227 520.259 162.602 525.395 165.352C530.531 168.08 534.611 172.114 537.634 177.455C540.656 182.773 542.168 189.318 542.168 197.091ZM522.668 197.091C522.668 192.909 522.111 189.386 520.997 186.523C519.906 183.636 518.281 181.455 516.122 179.977C513.986 178.477 511.349 177.727 508.213 177.727C505.077 177.727 502.429 178.477 500.27 179.977C498.134 181.455 496.509 183.636 495.395 186.523C494.304 189.386 493.759 192.909 493.759 197.091C493.759 201.273 494.304 204.807 495.395 207.693C496.509 210.557 498.134 212.739 500.27 214.239C502.429 215.716 505.077 216.455 508.213 216.455C511.349 216.455 513.986 215.716 516.122 214.239C518.281 212.739 519.906 210.557 520.997 207.693C522.111 204.807 522.668 201.273 522.668 197.091ZM592.256 162.182H611.21V206.909C611.21 212.227 609.938 216.83 607.392 220.716C604.869 224.58 601.347 227.568 596.824 229.682C592.301 231.773 587.051 232.818 581.074 232.818C575.051 232.818 569.778 231.773 565.256 229.682C560.733 227.568 557.21 224.58 554.688 220.716C552.188 216.83 550.938 212.227 550.938 206.909V162.182H569.892V205.273C569.892 207.432 570.369 209.364 571.324 211.068C572.278 212.75 573.597 214.068 575.278 215.023C576.983 215.977 578.915 216.455 581.074 216.455C583.256 216.455 585.188 215.977 586.869 215.023C588.551 214.068 589.869 212.75 590.824 211.068C591.778 209.364 592.256 207.432 592.256 205.273V162.182ZM665.56 185.227C665.264 184.023 664.798 182.966 664.162 182.057C663.526 181.125 662.73 180.341 661.776 179.705C660.844 179.045 659.753 178.557 658.503 178.239C657.276 177.898 655.923 177.727 654.446 177.727C651.264 177.727 648.548 178.489 646.298 180.011C644.071 181.534 642.366 183.727 641.185 186.591C640.026 189.455 639.446 192.909 639.446 196.955C639.446 201.045 640.003 204.545 641.116 207.455C642.23 210.364 643.889 212.591 646.094 214.136C648.298 215.682 651.037 216.455 654.31 216.455C657.196 216.455 659.594 216.034 661.503 215.193C663.435 214.352 664.878 213.159 665.832 211.614C666.787 210.068 667.264 208.25 667.264 206.159L670.537 206.5H654.582V193H685.537V202.682C685.537 209.045 684.185 214.489 681.48 219.011C678.798 223.511 675.094 226.966 670.366 229.375C665.662 231.761 660.264 232.955 654.173 232.955C647.378 232.955 641.412 231.511 636.276 228.625C631.139 225.739 627.128 221.625 624.241 216.284C621.378 210.943 619.946 204.591 619.946 197.227C619.946 191.455 620.821 186.341 622.571 181.886C624.344 177.432 626.798 173.67 629.935 170.602C633.071 167.511 636.696 165.182 640.81 163.614C644.923 162.023 649.332 161.227 654.037 161.227C658.173 161.227 662.014 161.818 665.56 163C669.128 164.159 672.276 165.818 675.003 167.977C677.753 170.114 679.969 172.648 681.651 175.58C683.332 178.511 684.355 181.727 684.719 185.227H665.56ZM694.375 232V162.182H713.33V189.455H738.42V162.182H757.375V232H738.42V204.727H713.33V232H694.375Z" fill="white"/>
</svg>
